<?xml version="1.0" encoding="utf-8"?>
<!-- Generator: Adobe Illustrator 22.0.1, SVG Export Plug-In . SVG Version: 6.00 Build 0)  -->
<svg version="1.1" id="Layer_1" xmlns="http://www.w3.org/2000/svg" xmlns:xlink="http://www.w3.org/1999/xlink" x="0px" y="0px"
	 viewBox="0 0 3382.8 1807.1" enable-background="new 0 0 3382.8 1807.1" xml:space="preserve">
<g id="Group_1248" transform="translate(344 0.456)">
	<rect id="Rectangle_64" x="1450.2" y="397" fill="#2B352A" width="1588.6" height="938.1"/>
	<path id="Path_458" fill="#FCECD6" d="M1450,1335c-300.4,0-544-243.6-544-544h1088C1994,1091.4,1750.4,1335,1450,1335z"/>
	<rect id="Rectangle_65" x="1450.2" y="791" fill="#FCECD6" width="1588.6" height="544.1"/>
	<rect id="Rectangle_10" x="1989" y="0" fill="#756C64" width="1049.6" height="397.1"/>
	<rect id="Rectangle_44" x="906" y="0" fill="#4F4C8A" width="1087.6" height="788.6"/>
	<path id="Path_457" fill="#707B75" d="M1450,246.8c-300.4,0-544,243.6-544,544h1088C1994,490.3,1750.5,246.8,1450,246.8z"/>
	<rect id="Rectangle_7" x="0" y="0" fill="#2B352A" width="907" height="1806.6"/>
	<path id="Path_422" fill="#DF624D" d="M698.2-0.5C583.2-0.5,490,92.8,490,207.8h416.4C906.4,92.8,813.2-0.5,698.2-0.5z"/>
	<path id="Path_423" fill="#DF624D" d="M698.2,208c-115,0-208.2,93.2-208.2,208.2h416.4C906.4,301.2,813.2,208,698.2,208z"/>
	<circle id="Ellipse_4" fill="#DF624D" cx="2388.7" cy="396.6" r="394.6"/>
	<path id="Path_459" fill="#FFFFFF" d="M1450,791.2h320.2L1450,1111.4V791.2z"/>
	<path id="Path_460" fill="#FFFFFF" d="M1770.2,791.2h320.2l-320.2,320.2V791.2z"/>
	<path id="Path_461" fill="#FFFFFF" d="M2089.8,791.2H2410l-320.2,320.2V791.2z"/>
	<path id="Path_424" fill="#756C64" d="M906,416.6v661.8H489L906,416.6z"/>
	<path id="Path_464" fill="#756C64" d="M490,416.6v661.8H73L490,416.6z"/>
	<path id="Path_465" fill="#756C64" d="M73,416.6v661.8h-417L73,416.6z"/>
</g>
</svg>
