<svg version="1.1"  id="right-home-banner" xmlns="http://www.w3.org/2000/svg" xmlns:xlink="http://www.w3.org/1999/xlink" x="0px" y="0px"
	 viewBox="0 0 2131.1 1807.1" enable-background="new 0 0 2131.1 1807.1" xml:space="preserve">
<g id="Group_1248"class="fadeInLeft" transform="translate(344 0.456)">
	<rect id="Rectangle_64" x="198.4" y="397" fill="#2B352A" width="1588.6" height="938.1"/>
	<path id="Path_458" fill="#FCECD6" d="M198.3,1335c-300.4,0-544-243.6-544-544h1088C742.3,1091.4,498.7,1335,198.3,1335z"/>
	<rect id="Rectangle_65" x="198.4" y="791" fill="#FCECD6" width="1588.6" height="544.1"/>
	<rect id="Rectangle_10" x="737.3" y="0" fill="#756C64" width="1049.6" height="397.1"/>
	<rect id="Rectangle_44" x="-345.7" y="0" fill="#4F4C8A" width="1087.6" height="788.6"/>
	<path id="Path_457" fill="#707B75" d="M198.3,246.8c-300.4,0-544,243.6-544,544h1088C742.3,490.3,498.7,246.8,198.3,246.8z"/>
	<circle id="Ellipse_4" fill="#DF624D" cx="1137" cy="396.6" r="394.6"/>
	<path id="Path_459" fill="#FFFFFF" d="M198.3,791.2h320.2l-320.2,320.2V791.2z"/>
	<path id="Path_460" fill="#FFFFFF" d="M518.5,791.2h320.2l-320.2,320.2V791.2z"/>
	<path id="Path_461" fill="#FFFFFF" d="M838.1,791.2h320.2l-320.2,320.2V791.2z"/>
</g>
</svg>
