<svg id="sp-banner" data-name="Group 1258" xmlns="http://www.w3.org/2000/svg" width="3039" height="1247" viewBox="0 0 3039 1247">
  <g id="Group_1253" data-name="Group 1253" transform="translate(6182.187 1512.5) rotate(180)">
    <rect id="Rectangle_9" data-name="Rectangle 9" width="1201" height="1247" transform="translate(3143.187 265.5)" fill="#fcecd6"/>
  </g>
  <path id="Path_466" data-name="Path 466" d="M0,0H1836.722V673.161H0Z" transform="translate(1836.722 673.161) rotate(180)" fill="#2b352a"/>
  <path id="Path_467" data-name="Path 467" d="M0,0H0V672.688H1401.249a2480.007,2480.007,0,0,0-206.654-200.3C846.625,172.841,437.594,0,0,0Z" transform="translate(1837.719 673.688) rotate(180)" fill="#707b75"/>
  <path id="Path_468" data-name="Path 468" d="M1866.256-193.991c-177.2,0-320.843,143.647-320.843,320.845H2187.1C2187.1-50.344,2043.454-193.991,1866.256-193.991Z" transform="translate(292.587 546.535)" fill="#df624d"/>
  <path id="Path_469" data-name="Path 469" d="M1866.256-193.991c-177.2,0-320.843,143.647-320.843,320.845H2187.1C2187.1-50.344,2043.454-193.991,1866.256-193.991Z" transform="translate(292.587 867.7)" fill="#df624d"/>
  <path id="Path_470" data-name="Path 470" d="M1866.256-193.991c-177.2,0-320.843,143.647-320.843,320.845H2187.1C2187.1-50.344,2043.454-193.991,1866.256-193.991Z" transform="translate(292.587 228.7)" fill="#df624d"/>
</svg>
