<svg id="tc-banner" xmlns="http://www.w3.org/2000/svg" width="3039.011" height="1465.518" viewBox="0 0 3039.011 1465.518">
  <g id="Group_1264" data-name="Group 1264" transform="translate(-0.032 -0.294)">
    <rect id="Rectangle_70" data-name="Rectangle 70" width="2205.639" height="673.639" transform="translate(2205.671 673.934) rotate(180)" fill="#4f4c8a"/>
    <rect id="Rectangle_71" data-name="Rectangle 71" width="833.043" height="1258.639" transform="translate(3039.043 1258.935) rotate(180)" fill="#df624d"/>
    <path id="Path_478" data-name="Path 478" d="M871.695,1127.271V0H0Z" transform="translate(2509.788 594.117) rotate(90)" fill="#756c64"/>
    <path id="Path_480" data-name="Path 480" d="M1753.619-193.991c-114.989,0-208.206,93.217-208.206,208.207h416.413C1961.826-100.774,1868.609-193.991,1753.619-193.991Z" transform="translate(3955.115 1054.398) rotate(180)" fill="#fcecd6"/>
    <path id="Path_479" data-name="Path 479" d="M1753.619-193.991c-114.989,0-208.206,93.217-208.206,208.207h416.413C1961.826-100.774,1868.609-193.991,1753.619-193.991Z" transform="translate(3955.115 845.984) rotate(180)" fill="#fcecd6"/>
    <circle id="Ellipse_11" data-name="Ellipse 11" cx="208.5" cy="208.5" r="208.5" transform="translate(2410 832) rotate(180)" fill="#fcecd6"/>
  </g>
</svg>
